<svg id="visual" viewBox="0 0 900 600" width="900" height="600" xmlns="http://www.w3.org/2000/svg" xmlns:xlink="http://www.w3.org/1999/xlink" version="1.1"><path d="M0 448L10.7 446C21.3 444 42.7 440 64.2 436.2C85.7 432.3 107.3 428.7 128.8 426.3C150.3 424 171.7 423 193 425.3C214.3 427.7 235.7 433.3 257 431C278.3 428.7 299.7 418.3 321.2 415.2C342.7 412 364.3 416 385.8 416.7C407.3 417.3 428.7 414.7 450 416.2C471.3 417.7 492.7 423.3 514.2 418.8C535.7 414.3 557.3 399.7 578.8 394.7C600.3 389.7 621.7 394.3 643 398.3C664.3 402.3 685.7 405.7 707 405C728.3 404.3 749.7 399.7 771.2 402.2C792.7 404.7 814.3 414.3 835.8 415.7C857.3 417 878.7 410 889.3 406.5L900 403L900 601L889.3 601C878.7 601 857.3 601 835.8 601C814.3 601 792.7 601 771.2 601C749.7 601 728.3 601 707 601C685.7 601 664.3 601 643 601C621.7 601 600.3 601 578.8 601C557.3 601 535.7 601 514.2 601C492.7 601 471.3 601 450 601C428.7 601 407.3 601 385.8 601C364.3 601 342.7 601 321.2 601C299.7 601 278.3 601 257 601C235.7 601 214.3 601 193 601C171.7 601 150.3 601 128.8 601C107.3 601 85.7 601 64.2 601C42.7 601 21.3 601 10.7 601L0 601Z" fill="#1985a1" stroke-linecap="round" stroke-linejoin="miter"></path></svg>